<svg id="Layer_1" data-name="Layer 1" xmlns="http://www.w3.org/2000/svg" viewBox="0 0 167.3433 179.0989" preserveAspectRatio="xMinYMid">
	<style>
		path {
			fill: #fff;
		}
	</style>
  <g>
    <path d="M640.9244,449.9954c-9.2757,0-17.7477.08-26.2148-.0891a5.161,5.161,0,0,1-3.5687-1.9568c-20.3578-29.0382-40.6219-58.1421-61.05-87.4481,2.6215-3.7568,5.1856-7.4236,7.7418-11.096q26.1129-37.5159,52.1688-75.0712c1.6976-2.4576,3.439-3.4975,6.4766-3.411,7.9868.2276,15.9844.0769,24.8061.0769-1.164,2.1493-2.0411,3.842-2.9833,5.4976-15.1464,26.615-30.2377,53.262-45.5373,79.7887-1.84,3.1894-1.728,5.44.0572,8.5589,15.0458,26.2882,29.9094,52.6806,44.8193,79.0465C638.6127,445.6109,639.5146,447.37,640.9244,449.9954Z" transform="translate(-550.0913 -270.9183)"/>
    <path d="M717.3231,449.9922c-9.6252,0-18.5654.1055-27.4974-.1171-1.2973-.0323-2.955-1.3607-3.7731-2.5516-19.24-28.0065-38.36-56.0954-57.6045-84.0988-1.52-2.2126-1.2121-3.6421.1916-5.6873,19.1338-27.8775,38.1614-55.8279,57.3193-83.6887.8889-1.2927,2.7349-2.6791,4.1721-2.72,8.8034-.2506,17.6175-.1254,27.3035-.1254-1.1384,2.1041-1.9322,3.6567-2.8016,5.1657-15.3759,26.6879-30.7049,53.4031-46.22,80.01-1.8034,3.0927-1.9806,5.2921-.1163,8.4844C683.8288,391.26,699.15,417.98,714.5221,444.67,715.4029,446.1993,716.17,447.7937,717.3231,449.9922Z" transform="translate(-550.0913 -270.9183)"/>
  </g>
</svg>
