<svg id="Layer_1" data-name="Layer 1" xmlns="http://www.w3.org/2000/svg" viewBox="0 0 167.2531 179.1118" preserveAspectRatio="xMinYMid">
	<style>
		path {
			fill: #fff;
		}
	</style>
  <g>
    <path d="M627.6924,271.0012c9.2685,0,17.5992-.0864,25.9246.0836a5.7765,5.7765,0,0,1,4.1262,1.8372q30.5316,43.5748,60.9186,87.4292c-.8777,1.3692-1.6324,2.6362-2.4726,3.8439q-28.5369,41.02-57.0292,82.0712c-1.9086,2.7637-3.8752,3.9324-7.2745,3.817C644.1185,449.82,636.3363,450,627.911,450c1.1323-2.1648,1.9073-3.7569,2.7781-5.2948q22.7638-40.1987,45.6188-80.3454c1.6183-2.8263,1.6542-4.8355.0186-7.68Q653.3,316.63,630.571,276.41C629.6916,274.8634,628.8961,273.2689,627.6924,271.0012Z" transform="translate(-551.4087 -270.9792)"/>
    <path d="M551.4087,449.8143c7.9415-13.81,15.3869-26.7783,22.8523-39.7348,8.8045-15.2807,17.55-30.5965,26.51-45.7859,1.66-2.8143,1.576-4.8594-.04-7.6389q-23.2084-39.9126-46.1646-79.9719c-.8995-1.5615-1.7476-3.1527-3.1318-5.6566,9.8882,0,19.08-.0741,28.2663.1077.9843.0195,2.18,1.3644,2.8724,2.3727q29.5395,43.0182,58.9758,86.1076a6.6728,6.6728,0,0,1,.457,1.1694q-24.5553,35.8517-49.2941,71.9436c-3.95,5.752-8.0606,11.3943-12.0973,17.0871Z" transform="translate(-551.4087 -270.9792)"/>
  </g>
</svg>
