<svg id="home_icon" data-name="Home Icon" xmlns="http://www.w3.org/2000/svg" viewBox="0 0 384 305.8255" preserveAspectRatio="xMinYMid">
	<path d="M408,344.25c2.4925-2.3942,4.85-4.95,7.4973-7.1586q82.4735-68.7911,165.015-137.5c12.08-10.0549,26.8351-10.0774,38.9966.0019,17.7017,14.671,35.2927,29.4755,52.9337,44.22,1.0186.8513,2.0617,1.6733,3.61,2.9273.0979-1.8823.2122-3.0683.2134-4.2543.0131-13.3727-.01-26.7455.0173-40.1182.0148-7.0585,2.4305-9.4986,9.4466-9.5143q20.9963-.0466,41.9928.001c6.958.0161,9.487,2.5791,9.49,9.5565q.0186,45.93-.0485,91.8593a6.59,6.59,0,0,0,2.652,5.7q23.2985,19.1762,46.4392,38.5436c2.0683,1.7285,3.8374,3.815,5.745,5.7358v5.25c-5.1447,6.2367-10.2423,12.513-15.4493,18.6972-4.0377,4.7953-8.1861,5.1323-12.9537,1.1571q-74.9643-62.5054-149.9154-125.0264c-4.4906-3.7451-8.9948-7.474-13.6783-11.3646-10.52,8.7639-20.8685,17.3783-31.21,26.0008q-65.9,54.9462-131.7989,109.8933c-5.5572,4.6326-9.4163,4.297-14.0276-1.2363-5.0154-6.0183-9.98-12.0789-14.9668-18.1211Z" transform="translate(-408 -192.0418)" />
	<path d="M630.6363,406.5352H569.5136v91.3284h-4.5613q-42.1844,0-84.3687-.0031c-11.7367-.004-17.7983-6.0554-17.8-17.7491-.0047-36.2473.0415-72.4948-.0765-108.7417a8.3275,8.3275,0,0,1,3.47-7.23q65.3169-53.6667,130.4962-107.501c1.0454-.8618,2.1418-1.6618,3.4248-2.6533,8.3747,6.8908,16.66,13.6969,24.9331,20.5173q54.5258,44.95,109.0862,89.8581a7.6191,7.6191,0,0,1,3.1688,6.5963c-.0985,36.497-.06,72.9944-.0676,109.4917-.0025,11.2051-6.1782,17.4023-17.3884,17.4091q-42.5593.0259-85.1187.0058h-4.0749Z" transform="translate(-408 -192.0418)" />
</svg>